# This file uses centimeters as units for non-parametric coordinates.

mtllib leaf05.mtl
v 3.237040 1.478097 1.929877
v 0.000665 -0.099147 0.124805
v -2.716394 1.454745 1.881569
v 10.679060 6.834794 13.602656
v 0.073489 6.408650 13.783520
v -9.866328 6.834794 13.712197
v 7.426770 8.750953 27.112911
v 0.171824 8.416002 32.226906
v -6.186768 8.695802 26.996443
v 9.837467 8.078638 19.974718
v 0.118322 8.247980 22.192144
v -9.372812 8.130660 20.255468
v 8.096542 3.552048 5.414387
v 0.029760 3.125903 5.581716
v -7.500067 3.552048 5.497544
v 8.096173 3.789308 5.345174
v 0.029391 3.363163 5.512502
v 0.073120 6.645910 13.714307
v 10.678691 7.072054 13.533443
v -7.500436 3.789308 5.428330
v -9.866697 7.072054 13.642985
v 9.837098 8.315898 19.905504
v 0.117953 8.485240 22.122929
v 0.171455 8.653262 32.157693
v 7.426401 8.988213 27.043698
v -9.373181 8.367920 20.186253
v -6.187137 8.933062 26.927230
v 3.236671 1.715358 1.860664
v 0.000296 0.138113 0.055591
v -2.716763 1.692005 1.812355
vt 0.000000 0.211531
vt 0.500000 0.211531
vt 0.500000 0.500000
vt 0.000000 0.500000
vt 1.000000 0.211531
vt 1.000000 0.500000
vt 0.000000 0.781721
vt 0.500000 0.781721
vt 0.500000 1.000000
vt 0.000000 1.000000
vt 1.000000 0.781721
vt 1.000000 1.000000
vt 0.000000 0.000000
vt 0.500000 0.000000
vt 1.000000 0.000000
vt 0.000000 0.211531
vt 0.000000 0.500000
vt 0.500000 0.500000
vt 0.500000 0.211531
vt 1.000000 0.500000
vt 1.000000 0.211531
vt 0.000000 0.781721
vt 0.000000 1.000000
vt 0.500000 1.000000
vt 0.500000 0.781721
vt 1.000000 1.000000
vt 1.000000 0.781721
vt 0.000000 0.000000
vt 0.500000 0.000000
vt 1.000000 0.000000
vt 0.000000 0.500000
vt 0.000000 0.211531
vt 1.000000 0.211531
vt 1.000000 0.500000
vt 0.500000 1.000000
vt 0.000000 1.000000
vt 0.000000 0.781721
vt 1.000000 0.781721
vt 1.000000 1.000000
vt 0.000000 0.000000
vt 0.500000 0.000000
vt 1.000000 0.000000
vn -0.052690 0.925705 -0.374557
vn -0.001681 0.920151 -0.391560
vn -0.001227 0.957275 -0.289176
vn -0.042924 0.957846 -0.284058
vn -0.001681 0.920151 -0.391560
vn 0.052724 0.925767 -0.374401
vn 0.042490 0.958673 -0.281320
vn -0.001227 0.957275 -0.289176
vn -0.035513 0.986839 -0.157761
vn -0.001232 0.991956 -0.126581
vn -0.003261 0.998650 -0.051847
vn -0.032775 0.998039 -0.053336
vn -0.001232 0.991956 -0.126581
vn 0.035806 0.986104 -0.162225
vn 0.032827 0.998211 -0.049965
vn -0.003261 0.998650 -0.051847
vn -0.042924 0.957846 -0.284058
vn -0.001227 0.957275 -0.289176
vn -0.001232 0.991956 -0.126581
vn -0.035513 0.986839 -0.157761
vn -0.001227 0.957275 -0.289176
vn 0.042490 0.958673 -0.281320
vn 0.035806 0.986104 -0.162225
vn -0.001232 0.991956 -0.126581
vn -0.087044 0.877159 -0.472245
vn -0.003595 0.881789 -0.471631
vn -0.001681 0.920151 -0.391560
vn -0.052690 0.925705 -0.374557
vn -0.003595 0.881789 -0.471631
vn 0.093742 0.879405 -0.466754
vn 0.052724 0.925767 -0.374401
vn -0.001681 0.920151 -0.391560
vn 0.052690 -0.925705 0.374557
vn 0.042924 -0.957846 0.284058
vn 0.001227 -0.957275 0.289176
vn 0.001681 -0.920151 0.391560
vn 0.001681 -0.920151 0.391560
vn 0.001227 -0.957275 0.289176
vn -0.042490 -0.958673 0.281320
vn -0.052724 -0.925767 0.374401
vn 0.035513 -0.986839 0.157761
vn 0.032775 -0.998039 0.053336
vn 0.003261 -0.998650 0.051847
vn 0.001232 -0.991956 0.126581
vn 0.001232 -0.991956 0.126581
vn 0.003261 -0.998650 0.051847
vn -0.032827 -0.998211 0.049965
vn -0.035806 -0.986104 0.162225
vn 0.042924 -0.957846 0.284058
vn 0.035513 -0.986839 0.157761
vn 0.001232 -0.991956 0.126581
vn 0.001227 -0.957275 0.289176
vn 0.001227 -0.957275 0.289176
vn 0.001232 -0.991956 0.126581
vn -0.035806 -0.986104 0.162225
vn -0.042490 -0.958673 0.281320
vn 0.087044 -0.877159 0.472245
vn 0.052690 -0.925705 0.374557
vn 0.001681 -0.920151 0.391560
vn 0.003595 -0.881789 0.471631
vn 0.003595 -0.881789 0.471631
vn 0.001681 -0.920151 0.391560
vn -0.052724 -0.925767 0.374401
vn -0.093742 -0.879405 0.466754
vn 0.993526 -0.030389 -0.109470
vn 0.959321 -0.077686 -0.271418
vn 0.959321 -0.077686 -0.271418
vn 0.993555 -0.030318 -0.109226
vn -0.965771 -0.074027 -0.248611
vn -0.992708 -0.035178 -0.115295
vn -0.992766 -0.035044 -0.114836
vn -0.965771 -0.074027 -0.248611
vn 0.552885 0.234145 0.799684
vn 0.552885 0.234145 0.799684
vn 0.552885 0.234145 0.799684
vn 0.552885 0.234145 0.799684
vn 0.945998 0.092139 0.310803
vn 0.969781 0.069714 0.233805
vn 0.974633 0.064073 0.214442
vn 0.945998 0.092139 0.310803
vn -0.958587 0.078383 0.273802
vn -0.750480 0.184006 0.634762
vn -0.792376 0.169702 0.585953
vn -0.968877 0.067934 0.238040
vn -0.750480 0.184006 0.634762
vn -0.613882 0.220189 0.758067
vn -0.613882 0.220189 0.758067
vn -0.792376 0.169702 0.585953
vn 0.969781 0.069714 0.233805
vn 0.993526 -0.030389 -0.109470
vn 0.993555 -0.030318 -0.109226
vn 0.974633 0.064073 0.214442
vn -0.992708 -0.035178 -0.115295
vn -0.958587 0.078383 0.273802
vn -0.968877 0.067934 0.238040
vn -0.992766 -0.035044 -0.114836
vn 0.596997 -0.223811 -0.770392
vn 0.557530 -0.231685 -0.797172
vn 0.557530 -0.231685 -0.797172
vn 0.606273 -0.221841 -0.763688
vn 0.628306 -0.216967 -0.747099
vn 0.596997 -0.223811 -0.770392
vn 0.606273 -0.221841 -0.763688
vn 0.628306 -0.216967 -0.747099
vn -0.615661 -0.221563 -0.756222
vn -0.633886 -0.217505 -0.742213
vn -0.638205 -0.216514 -0.738794
vn -0.615661 -0.221563 -0.756222
vn -0.633886 -0.217505 -0.742213
vn -0.647072 -0.214444 -0.731650
vn -0.647072 -0.214444 -0.731650
vn -0.638205 -0.216514 -0.738794
s off
g leaf04:pPlane1
usemtl leaf04:initialShadingGroup
f 16/1/1 17/2/2 18/3/3 19/4/4
f 17/2/5 20/5/6 21/6/7 18/3/8
f 22/7/9 23/8/10 24/9/11 25/10/12
f 23/8/13 26/11/14 27/12/15 24/9/16
f 19/4/17 18/3/18 23/8/19 22/7/20
f 18/3/21 21/6/22 26/11/23 23/8/24
f 28/13/25 29/14/26 17/2/27 16/1/28
f 29/14/29 30/15/30 20/5/31 17/2/32
f 13/16/33 4/17/34 5/18/35 14/19/36
f 14/19/37 5/18/38 6/20/39 15/21/40
f 10/22/41 7/23/42 8/24/43 11/25/44
f 11/25/45 8/24/46 9/26/47 12/27/48
f 4/17/49 10/22/50 11/25/51 5/18/52
f 5/18/53 11/25/54 12/27/55 6/20/56
f 1/28/57 13/16/58 14/19/59 2/29/60
f 2/29/61 14/19/62 15/21/63 3/30/64
f 4/31/65 13/32/66 16/1/67 19/4/68
f 15/33/69 6/34/70 21/6/71 20/5/72
f 8/35/73 7/36/74 25/10/75 24/9/76
f 7/36/77 10/37/78 22/7/79 25/10/80
f 12/38/81 9/39/82 27/12/83 26/11/84
f 9/39/85 8/35/86 24/9/87 27/12/88
f 10/37/89 4/31/90 19/4/91 22/7/92
f 6/34/93 12/38/94 26/11/95 21/6/96
f 1/40/97 2/41/98 29/14/99 28/13/100
f 13/32/101 1/40/102 28/13/103 16/1/104
f 2/41/105 3/42/106 30/15/107 29/14/108
f 3/42/109 15/33/110 20/5/111 30/15/112
